<mxfile host="app.diagrams.net" modified="2022-03-29T03:56:22.382Z" agent="5.0 (Windows NT 10.0; Win64; x64) AppleWebKit/537.36 (KHTML, like Gecko) Chrome/99.0.4844.82 Safari/537.36" etag="C-hqJhYoyoA6YuLUMR87" version="17.1.2" type="github">
  <diagram id="ShZ29BFXP3_YNw8NW9CX" name="Page-1">
    <mxGraphModel dx="1038" dy="491" grid="0" gridSize="10" guides="1" tooltips="1" connect="1" arrows="1" fold="1" page="0" pageScale="1" pageWidth="827" pageHeight="1169" math="0" shadow="0">
      <root>
        <mxCell id="0" />
        <mxCell id="1" parent="0" />
        <mxCell id="j74zpn3zi0Prhkgbq2AJ-3" style="edgeStyle=orthogonalEdgeStyle;rounded=0;orthogonalLoop=1;jettySize=auto;html=1;exitX=1;exitY=0.5;exitDx=0;exitDy=0;entryX=0;entryY=0.5;entryDx=0;entryDy=0;endArrow=none;endFill=0;" edge="1" parent="1" source="j74zpn3zi0Prhkgbq2AJ-1" target="j74zpn3zi0Prhkgbq2AJ-2">
          <mxGeometry relative="1" as="geometry" />
        </mxCell>
        <mxCell id="j74zpn3zi0Prhkgbq2AJ-1" value="C" style="text;html=1;strokeColor=none;fillColor=none;align=center;verticalAlign=middle;whiteSpace=wrap;rounded=0;" vertex="1" parent="1">
          <mxGeometry x="75" y="193" width="60" height="30" as="geometry" />
        </mxCell>
        <mxCell id="j74zpn3zi0Prhkgbq2AJ-4" style="edgeStyle=orthogonalEdgeStyle;rounded=0;orthogonalLoop=1;jettySize=auto;html=1;exitX=0.5;exitY=0;exitDx=0;exitDy=0;endArrow=none;endFill=0;" edge="1" parent="1" source="j74zpn3zi0Prhkgbq2AJ-2" target="j74zpn3zi0Prhkgbq2AJ-5">
          <mxGeometry relative="1" as="geometry">
            <mxPoint x="222" y="142.20001220703125" as="targetPoint" />
          </mxGeometry>
        </mxCell>
        <mxCell id="j74zpn3zi0Prhkgbq2AJ-2" value="Bprime" style="text;html=1;strokeColor=none;fillColor=none;align=center;verticalAlign=middle;whiteSpace=wrap;rounded=0;" vertex="1" parent="1">
          <mxGeometry x="192" y="193" width="60" height="30" as="geometry" />
        </mxCell>
        <mxCell id="j74zpn3zi0Prhkgbq2AJ-5" value="A" style="text;html=1;strokeColor=none;fillColor=none;align=center;verticalAlign=middle;whiteSpace=wrap;rounded=0;" vertex="1" parent="1">
          <mxGeometry x="192" y="127.20001220703125" width="60" height="30" as="geometry" />
        </mxCell>
        <mxCell id="j74zpn3zi0Prhkgbq2AJ-7" style="edgeStyle=orthogonalEdgeStyle;rounded=0;orthogonalLoop=1;jettySize=auto;html=1;exitX=1;exitY=0.5;exitDx=0;exitDy=0;endArrow=none;endFill=0;" edge="1" parent="1" source="j74zpn3zi0Prhkgbq2AJ-6" target="j74zpn3zi0Prhkgbq2AJ-5">
          <mxGeometry relative="1" as="geometry" />
        </mxCell>
        <mxCell id="j74zpn3zi0Prhkgbq2AJ-6" value="Aprime" style="text;html=1;strokeColor=none;fillColor=none;align=center;verticalAlign=middle;whiteSpace=wrap;rounded=0;" vertex="1" parent="1">
          <mxGeometry x="91" y="127.20001220703125" width="60" height="30" as="geometry" />
        </mxCell>
      </root>
    </mxGraphModel>
  </diagram>
</mxfile>
